<svg width="220.81246337890624px" height="62px" xmlns="http://www.w3.org/2000/svg" viewBox="139.59376831054686 44 220.81246337890624 62" style="background: rgba(0, 0, 0, 0);" preserveAspectRatio="xMidYMid"><defs><filter id="editing-extrusion" x="-100%" y="-100%" width="300%" height="300%"><feFlood result="color1" flood-color="#444444"></feFlood><feConvolveMatrix order="8,8" divisor="1" kernelMatrix="1 0 0 0 0 0 0 0 0 1 0 0 0 0 0 0 0 0 1 0 0 0 0 0 0 0 0 1 0 0 0 0 0 0 0 0 1 0 0 0 0 0 0 0 0 1 0 0 0 0 0 0 0 0 1 0 0 0 0 0 0 0 0 1" in="SourceAlpha" result="extrude"></feConvolveMatrix><feComposite in="color1" in2="extrude" result="comp-extrude" operator="in"></feComposite><feOffset dx="4" dy="4" in="comp-extrude" result="offset-extrude"></feOffset><feMerge><feMergeNode in="offset-extrude"></feMergeNode><feMergeNode in="SourceGraphic"></feMergeNode></feMerge></filter></defs><g filter="url(#editing-extrusion)"><g transform="translate(176.45884308218956, 84.61999893188477)"><path d="M10.14-1.95L10.14-1.95L10.14-1.95Q10.14-3.77 10.87-7.41L10.87-7.41L7.02-7.41L5.59 0L0.16 0L3.46-17.16L8.94-17.16L7.44-9.49L11.28-9.49L12.71-17.16L18.20-17.16L18.20-17.16Q17.84-15.24 17.37-13.08L17.37-13.08L16.48-8.84L16.48-8.84Q15.50-3.90 15.50-1.74L15.50-1.74L15.50-1.74Q15.50-0.86 15.78-0.36L15.78-0.36L15.78-0.36Q14.48 0.52 12.96 0.52L12.96 0.52L12.96 0.52Q11.44 0.52 10.79-0.21L10.79-0.21L10.79-0.21Q10.14-0.94 10.14-1.95ZM24.49 0.52L24.49 0.52L24.49 0.52Q18.77 0.52 18.77-4.86L18.77-4.86L18.77-4.86Q18.77-8.68 20.88-11.15L20.88-11.15L20.88-11.15Q23.11-13.78 26.99-13.78L26.99-13.78L26.99-13.78Q29.80-13.78 31.23-12.48L31.23-12.48L31.23-12.48Q32.66-11.18 32.66-8.45L32.66-8.45L32.66-8.45Q32.66-4.29 30.42-1.87L30.42-1.87L30.42-1.87Q28.24 0.52 24.49 0.52ZM25.17-10.79L25.17-10.79L25.17-10.79Q24.86-10.09 24.61-9.04L24.61-9.04L24.61-9.04Q24.36-7.98 24.05-6.32L24.05-6.32L24.05-6.32Q23.74-4.65 23.74-2.60L23.74-2.60L23.74-2.60Q23.74-1.92 23.96-1.48L23.96-1.48L23.96-1.48Q24.18-1.04 24.78-1.04L24.78-1.04L24.78-1.04Q25.38-1.04 25.75-1.33L25.75-1.33L25.75-1.33Q26.13-1.61 26.42-2.29L26.42-2.29L26.42-2.29Q26.94-3.48 27.35-5.71L27.35-5.71L27.35-5.71Q27.77-7.93 27.81-8.89L27.81-8.89L27.81-8.89Q27.85-9.85 27.85-10.57L27.85-10.57L27.85-10.57Q27.85-11.28 27.64-11.75L27.64-11.75L27.64-11.75Q27.43-12.22 26.85-12.22L26.85-12.22L26.85-12.22Q26.26-12.22 25.87-11.86L25.87-11.86L25.87-11.86Q25.48-11.49 25.17-10.79ZM52.91 0.52L52.91 0.52L52.91 0.52Q49.76 0.52 49.76-1.92L49.76-1.92L49.76-1.92Q49.76-2.99 50.22-5.06L50.22-5.06L50.22-5.06Q50.67-7.12 50.83-7.96L50.83-7.96L50.83-7.96Q51.19-9.85 51.19-10.45L51.19-10.45L51.19-10.45Q51.19-11.78 50.21-11.78L50.21-11.78L50.21-11.78Q49.56-11.78 48.93-10.88L48.93-10.88L48.93-10.88Q48.31-9.98 48.02-8.19L48.02-8.19L46.41 0L41.34 0.52L42.74-6.55L42.74-6.55Q42.98-7.72 43.19-9.05L43.19-9.05L43.19-9.05Q43.39-10.37 43.39-10.58L43.39-10.58L43.39-10.58Q43.39-11.78 42.51-11.78L42.51-11.78L42.51-11.78Q41.91-11.78 41.26-10.89L41.26-10.89L41.26-10.89Q40.61-10.01 40.25-8.19L40.25-8.19L38.66 0L33.54 0.52L36.27-13.26L40.51-13.78L40.07-11.15L40.07-11.15Q40.74-12.56 41.99-13.17L41.99-13.17L41.99-13.17Q43.24-13.78 45.19-13.78L45.19-13.78L45.19-13.78Q46.31-13.78 47.03-13.23L47.03-13.23L47.03-13.23Q47.76-12.69 48.00-11.80L48.00-11.80L48.00-11.80Q48.44-12.71 49.57-13.25L49.57-13.25L49.57-13.25Q50.70-13.78 52.09-13.78L52.09-13.78L52.09-13.78Q53.48-13.78 54.17-13.48L54.17-13.48L54.17-13.48Q54.86-13.18 55.28-12.69L55.28-12.69L55.28-12.69Q55.98-11.78 55.98-10.11L55.98-10.11L55.98-10.11Q55.98-8.48 55.28-5.07L55.28-5.07L55.28-5.07Q54.91-3.41 54.91-2.80L54.91-2.80L54.91-2.80Q54.91-2.18 55.26-1.82L55.26-1.82L55.26-1.82Q55.61-1.46 56.13-1.40L56.13-1.40L56.13-1.40Q55.87-0.52 54.98 0L54.98 0L54.98 0Q54.08 0.52 52.91 0.52ZM68.67-4.39L68.67-4.39L68.67-4.39Q69.32-3.95 69.32-2.98L69.32-2.98L69.32-2.98Q69.32-2.00 68.82-1.38L68.82-1.38L68.82-1.38Q68.33-0.75 67.52-0.34L67.52-0.34L67.52-0.34Q65.86 0.52 64.06 0.52L64.06 0.52L64.06 0.52Q62.27 0.52 61.22 0.13L61.22 0.13L61.22 0.13Q60.16-0.26 59.46-0.99L59.46-0.99L59.46-0.99Q58.08-2.37 58.08-4.89L58.08-4.89L58.08-4.89Q58.08-8.81 60.22-11.21L60.22-11.21L60.22-11.21Q62.50-13.78 66.48-13.78L66.48-13.78L66.48-13.78Q68.95-13.78 70.17-12.74L70.17-12.74L70.17-12.74Q71.08-11.96 71.08-10.69L71.08-10.69L71.08-10.69Q71.08-6.11 63.18-6.11L63.18-6.11L63.18-6.11Q63.08-5.43 63.08-4.86L63.08-4.86L63.08-4.86Q63.08-3.67 63.61-3.21L63.61-3.21L63.61-3.21Q64.14-2.76 65.13-2.76L65.13-2.76L65.13-2.76Q66.12-2.76 67.17-3.21L67.17-3.21L67.17-3.21Q68.22-3.67 68.67-4.39ZM63.36-7.23L63.36-7.23L63.36-7.23Q65.21-7.23 66.27-8.37L66.27-8.37L66.27-8.37Q67.34-9.46 67.34-11.21L67.34-11.21L67.34-11.21Q67.34-11.80 67.12-12.13L67.12-12.13L67.12-12.13Q66.90-12.45 66.46-12.45L66.46-12.45L66.46-12.45Q66.01-12.45 65.64-12.29L65.64-12.29L65.64-12.29Q65.26-12.12 64.87-11.54L64.87-11.54L64.87-11.54Q63.91-10.24 63.36-7.23ZM77.97-16.12L77.97-16.12L77.97-16.12Q78.34-16.85 79.13-17.25L79.13-17.25L79.13-17.25Q79.92-17.65 81.02-17.65L81.02-17.65L81.02-17.65Q82.73-17.65 83.76-16.42L83.76-16.42L83.76-16.42Q84.79-15.18 84.79-12.48L84.79-12.48L84.79-3.20L90.74-17.13L93.81-17.13L94.51-3.98L94.43-3.22L100.62-17.13L104.18-17.13L95.86 0L90.32 0L89.80-7.90L86.37 0L80.11 0L79.33-12.48L79.33-12.48Q79.25-13.88 78.87-14.81L78.87-14.81L78.87-14.81Q78.49-15.73 77.97-16.12ZM108.29 0.52L108.29 0.52L108.29 0.52Q102.57 0.52 102.57-4.86L102.57-4.86L102.57-4.86Q102.57-8.68 104.68-11.15L104.68-11.15L104.68-11.15Q106.91-13.78 110.79-13.78L110.79-13.78L110.79-13.78Q113.59-13.78 115.02-12.48L115.02-12.48L115.02-12.48Q116.45-11.18 116.45-8.45L116.45-8.45L116.45-8.45Q116.45-4.29 114.22-1.87L114.22-1.87L114.22-1.87Q112.03 0.52 108.29 0.52ZM108.97-10.79L108.97-10.79L108.97-10.79Q108.65-10.09 108.41-9.04L108.41-9.04L108.41-9.04Q108.16-7.98 107.85-6.32L107.85-6.32L107.85-6.32Q107.54-4.65 107.54-2.60L107.54-2.60L107.54-2.60Q107.54-1.92 107.76-1.48L107.76-1.48L107.76-1.48Q107.98-1.04 108.58-1.04L108.58-1.04L108.58-1.04Q109.17-1.04 109.55-1.33L109.55-1.33L109.55-1.33Q109.93-1.61 110.21-2.29L110.21-2.29L110.21-2.29Q110.73-3.48 111.15-5.71L111.15-5.71L111.15-5.71Q111.57-7.93 111.61-8.89L111.61-8.89L111.61-8.89Q111.64-9.85 111.64-10.57L111.64-10.57L111.64-10.57Q111.64-11.28 111.44-11.75L111.44-11.75L111.44-11.75Q111.23-12.22 110.64-12.22L110.64-12.22L110.64-12.22Q110.06-12.22 109.67-11.86L109.67-11.86L109.67-11.86Q109.28-11.49 108.97-10.79ZM126.13-7.31L126.13-7.31L126.13-7.31Q127.06-8.97 127.06-10.66L127.06-10.66L127.06-10.66Q127.06-11.78 126.26-11.78L126.26-11.78L126.26-11.78Q125.63-11.78 124.98-10.71L124.98-10.71L124.98-10.71Q124.31-9.65 124.10-8.27L124.10-8.27L122.75 0L117.36 0.52L120.02-13.26L124.31-13.78L123.84-11.15L123.84-11.15Q125.11-13.78 127.97-13.78L127.97-13.78L127.97-13.78Q129.48-13.78 130.30-13.00L130.30-13.00L130.30-13.00Q131.12-12.22 131.12-10.62L131.12-10.62L131.12-10.62Q131.12-9.02 130.07-8.01L130.07-8.01L130.07-8.01Q129.01-6.99 127.22-6.99L127.22-6.99L127.22-6.99Q126.44-6.99 126.13-7.31ZM138.24-12.32L138.24-12.32L138.24-12.32Q139.65-13.78 142.61-13.78L142.61-13.78L142.61-13.78Q144.25-13.78 145.15-12.91L145.15-12.91L145.15-12.91Q146.04-12.04 146.04-10.44L146.04-10.44L146.04-10.44Q146.04-8.84 145.15-7.71L145.15-7.71L145.15-7.71Q144.25-6.58 142.58-6.11L142.58-6.11L142.58-6.11Q142.71-5.59 142.90-5.04L142.90-5.04L143.26-4.00L143.26-4.00Q143.75-2.68 144.14-2.21L144.14-2.21L144.14-2.21Q144.53-1.74 145.05-1.59L145.05-1.59L145.05-1.59Q144.77-0.52 143.73 0.05L143.73 0.05L143.73 0.05Q142.90 0.52 141.75 0.52L141.75 0.52L141.75 0.52Q138.40 0.52 137.96-4.65L137.96-4.65L137.96-4.65Q137.88-5.38 137.88-6.11L137.88-6.11L137.88-6.11Q139.18-6.47 140.09-7.70L140.09-7.70L140.09-7.70Q141.00-8.92 141.00-10.35L141.00-10.35L141.00-10.35Q141.00-11.78 139.98-11.78L139.98-11.78L139.98-11.78Q139.26-11.78 138.68-10.97L138.68-10.97L138.68-10.97Q138.11-10.17 137.85-8.79L137.85-8.79L136.14 0L130.88 0.52L134.52-18.20L139.75-18.72L139.15-15.63L139.15-15.63Q138.76-13.44 138.24-12.32Z" fill="#ccc"></path></g></g><style>text {
  font-size: 64px;
  font-family: Arial Black;
  dominant-baseline: central;
  text-anchor: middle;
}</style></svg>